<?xml version="1.0" standalone="no"?> <!DOCTYPE svg PUBLIC "-//W3C//DTD SVG 20010904//EN" "http://www.w3.org/TR/2001/REC-SVG-20010904/DTD/svg10.dtd"> <svg version="1.0" xmlns="http://www.w3.org/2000/svg" width="225.000000pt" height="600.000000pt" viewBox="0 0 225.000000 600.000000" preserveAspectRatio="xMidYMid meet"> <g transform="translate(0.000000,600.000000) scale(0.100000,-0.100000)" fill="#00f000" stroke="none"> <path d="M1440 5495 c0 -312 -257 -513 -665 -518 -150 -2 -241 33 -307 118 -34 44 -32 151 4 220 28 54 96 123 147 149 72 38 10 49 -79 15 -115 -44 -194 -125 -251 -260 -27 -63 -31 -82 -26 -132 7 -74 54 -155 119 -206 50 -38 58 -60 32 -82 -53 -44 -214 -274 -214 -306 0 -5 -8 -27 -19 -49 -10 -21 -24 -63 -30 -92 -19 -89 -12 -322 10 -322 5 0 13 19 19 43 54 220 141 386 275 526 134 140 226 191 514 287 304 101 449 190 507 312 24 49 28 69 28 147 -1 100 -26 205 -50 205 -10 0 -14 -14 -14 -55z"/> <path d="M1710 5477 c0 -8 7 -34 17 -58 12 -32 17 -79 17 -174 1 -122 -1 -133 -26 -180 -31 -59 -197 -224 -284 -283 -95 -64 -236 -135 -399 -202 -218 -90 -368 -163 -438 -214 -176 -126 -279 -289 -308 -488 -25 -175 41 -396 183 -605 27 -40 53 -73 58 -73 12 0 13 6 0 28 -36 66 -83 195 -111 307 -57 232 -2 425 165 583 61 58 162 111 228 119 38 6 41 4 33 -13 -4 -10 -12 -37 -18 -59 -5 -22 -13 -44 -17 -50 -11 -14 -55 -204 -69 -293 -23 -150 -10 -418 30 -613 18 -92 78 -267 114 -336 19 -35 35 -69 35 -73 0 -5 -41 -49 -91 -97 -87 -83 -189 -220 -218 -290 -7 -18 -19 -33 -26 -33 -7 0 -30 21 -50 47 -43 55 -106 116 -112 109 -2 -2 4 -21 15 -43 36 -69 62 -177 62 -252 0 -46 -11 -117 -31 -199 -52 -215 -60 -254 -65 -342 -7 -100 8 -267 26 -283 9 -9 10 13 5 103 -11 190 16 346 86 488 101 208 264 399 394 464 86 43 165 57 199 34 20 -13 127 -137 149 -173 4 -7 -37 -55 -104 -123 -224 -227 -340 -433 -425 -755 -29 -108 -27 -373 4 -520 56 -263 188 -508 375 -693 102 -101 207 -181 207 -158 0 2 -21 28 -46 58 -111 130 -196 289 -220 415 -39 204 9 424 120 550 21 24 36 46 33 50 -3 3 -35 -15 -70 -40 -64 -46 -127 -124 -148 -184 -16 -47 -34 -41 -58 20 -113 282 -36 715 180 1012 76 106 218 265 235 265 19 0 204 -170 204 -187 0 -7 -33 -63 -74 -125 -41 -62 -90 -144 -109 -183 -36 -70 -77 -201 -77 -240 1 -17 5 -14 28 15 54 70 159 174 237 235 104 81 142 102 155 89 6 -6 30 -62 55 -125 44 -117 75 -270 75 -378 0 -55 15 -69 26 -23 4 15 15 59 25 97 42 154 35 324 -21 514 l-29 96 72 138 c39 76 77 143 84 149 10 8 13 -4 13 -66 0 -103 11 -101 49 12 31 89 40 225 20 310 -36 162 -48 200 -93 296 -38 82 -83 156 -94 156 -5 0 0 -33 10 -72 27 -102 29 -282 4 -363 -38 -121 -147 -325 -183 -339 -11 -5 -139 81 -198 132 l-27 24 49 51 c73 75 127 149 160 214 25 53 28 67 27 163 -1 224 -40 283 -342 510 -141 106 -185 161 -197 251 -4 27 -11 51 -16 55 -15 9 -10 -63 7 -124 35 -122 82 -182 215 -275 83 -59 162 -136 193 -190 56 -97 53 -239 -9 -362 -42 -82 -149 -215 -174 -215 -9 0 -60 44 -112 98 -312 321 -419 565 -419 957 0 258 58 454 184 621 50 68 125 134 151 134 13 0 15 -7 9 -35 -15 -82 47 -218 138 -300 65 -58 123 -84 205 -92 35 -3 63 -9 63 -13 0 -4 -8 -15 -19 -24 -10 -9 -31 -44 -46 -78 -33 -74 -32 -156 4 -230 35 -74 50 -64 44 30 -7 97 5 123 113 241 42 47 87 108 100 136 30 65 47 181 39 270 -8 95 -26 195 -35 195 -4 0 -10 -53 -13 -117 -8 -164 -32 -211 -134 -262 -83 -41 -222 -23 -275 36 -68 75 -64 286 7 423 37 70 105 116 275 186 63 25 140 59 170 74 99 51 177 155 199 268 13 64 15 269 2 276 -12 8 -21 -18 -21 -58 0 -40 -13 -79 -55 -171 -52 -113 -149 -194 -253 -211 -49 -8 -52 -1 -16 47 65 88 104 216 104 349 0 79 -3 90 -41 167 -41 83 -69 120 -69 90z"/> </g> </svg>
