<svg version="1.0" xmlns="http://www.w3.org/2000/svg" width="599.000000pt" height="669.000000pt" viewBox="0 0 599.000000 669.000000" preserveAspectRatio="xMidYMid meet"> <g transform="translate(0.000000,669.000000) scale(0.100000,-0.100000)" fill="#000000" stroke="none"> <path d="M2896 6616 c-296 -155 -525 -393 -572 -596 -45 -196 55 -349 177 -267 69 46 128 174 102 222 -8 14 -15 11 -46 -24 -43 -48 -73 -53 -88 -14 -29 76 58 213 136 213 43 0 90 -39 105 -87 19 -56 8 -197 -20 -263 -30 -69 -94 -171 -148 -233 -52 -60 -53 -71 -4 -63 99 18 221 116 270 218 70 144 68 361 -5 504 -14 29 -23 59 -20 68 17 44 74 21 106 -42 56 -109 52 -326 -10 -567 -43 -169 -145 -331 -255 -404 -49 -32 -81 -68 -70 -78 3 -4 41 6 84 20 124 43 206 57 350 57 145 0 244 -16 350 -56 78 -29 82 -29 82 -4 0 11 -17 31 -42 49 -70 48 -184 175 -216 238 -105 207 -143 604 -71 745 24 48 64 76 88 61 27 -17 24 -42 -15 -126 -34 -74 -38 -90 -42 -186 -9 -226 73 -388 236 -466 105 -51 150 -45 90 11 -49 46 -124 168 -158 257 -26 65 -32 97 -33 162 -2 116 33 171 112 182 39 5 44 3 81 -36 60 -63 83 -178 39 -201 -18 -10 -26 -6 -64 36 l-44 47 -6 -26 c-4 -15 -1 -50 5 -79 26 -106 132 -178 214 -144 74 31 98 198 47 327 -57 148 -205 316 -386 437 -77 52 -252 152 -265 152 -5 0 -48 -20 -94 -44z"/> <path d="M805 5376 c-121 -30 -205 -103 -392 -343 -69 -88 -213 -300 -213 -313 0 -5 57 -44 126 -87 212 -132 284 -222 284 -353 0 -36 -5 -85 -11 -109 -5 -24 -8 -46 -5 -48 8 -8 75 58 104 105 17 26 43 83 57 127 24 70 27 92 23 180 -4 99 -19 154 -45 163 -7 2 -17 -8 -22 -21 -14 -35 -49 -57 -92 -57 -28 0 -46 9 -80 39 -39 34 -44 43 -43 81 2 74 59 128 146 137 49 5 63 2 100 -20 99 -58 127 -114 135 -266 13 -265 -82 -524 -296 -806 -62 -81 -256 -280 -358 -367 l-84 -71 7 -61 c6 -58 36 -159 54 -181 5 -6 16 -33 25 -60 20 -59 75 -153 106 -180 11 -11 27 -32 35 -47 24 -46 34 -32 34 45 0 39 11 125 24 191 22 104 35 139 105 280 168 339 396 680 604 902 31 34 57 64 57 67 0 3 -16 28 -35 57 -42 63 -55 106 -55 190 0 103 62 210 122 210 32 0 95 -38 122 -73 48 -63 66 -117 91 -279 8 -48 27 -48 45 -1 33 92 97 180 222 305 l127 127 -38 48 c-54 68 -124 131 -213 197 -43 31 -118 91 -167 134 -97 83 -167 119 -299 153 -87 22 -229 24 -307 5z"/> <path d="M4894 5356 c-91 -21 -207 -73 -240 -107 -16 -17 -90 -76 -164 -132 -128 -95 -291 -241 -311 -280 -8 -14 12 -39 114 -140 123 -121 198 -223 228 -309 18 -52 36 -48 44 10 11 79 46 205 68 240 25 43 89 90 134 98 42 8 73 -17 109 -88 44 -86 24 -238 -41 -324 -33 -43 -32 -54 11 -95 103 -98 274 -321 421 -549 221 -343 316 -580 332 -825 l6 -100 53 70 c96 128 175 315 196 461 l6 42 -123 109 c-67 61 -165 155 -218 210 -86 90 -123 139 -237 316 -50 78 -123 262 -144 366 -16 77 -19 119 -15 211 10 189 38 250 136 294 101 45 172 29 227 -53 21 -32 24 -46 19 -73 -13 -62 -99 -127 -148 -112 -28 8 -77 54 -77 71 0 7 -7 13 -15 13 -8 0 -15 -9 -15 -20 0 -12 -7 -35 -16 -53 -22 -41 -22 -173 -1 -243 32 -109 134 -264 173 -264 18 0 18 -1 -7 55 -30 67 -22 142 22 225 49 93 109 149 246 229 67 39 125 76 128 82 15 23 -162 270 -361 503 -77 90 -117 121 -189 148 -76 27 -258 35 -351 14z"/> <path d="M2685 5134 c-104 -11 -298 -48 -370 -71 -91 -28 -202 -87 -272 -142 -93 -73 -224 -218 -355 -392 -202 -267 -252 -361 -330 -609 -42 -133 -66 -265 -55 -294 7 -17 18 -18 125 -14 92 4 134 11 197 32 149 50 215 96 386 266 85 85 179 187 208 225 63 85 144 243 171 333 18 63 41 257 31 267 -2 3 -14 5 -26 5 -17 0 -26 -13 -45 -57 -63 -155 -159 -320 -291 -498 -118 -160 -236 -258 -356 -295 -70 -22 -138 -26 -148 -10 -8 13 42 124 65 145 15 14 19 14 29 1 7 -9 15 -33 18 -56 5 -35 9 -40 33 -40 33 0 145 94 178 150 109 183 89 420 -36 420 -11 0 -5 12 23 40 39 40 65 51 65 27 0 -7 10 -30 21 -52 38 -69 50 -117 55 -214 2 -52 6 -97 8 -99 28 -27 191 237 267 431 11 29 28 70 39 92 10 22 25 56 34 76 16 35 17 36 62 29 52 -8 62 -17 99 -84 26 -47 27 -54 21 -138 -19 -245 -131 -496 -354 -794 -105 -138 -154 -184 -321 -295 -174 -116 -360 -196 -529 -229 -38 -8 -66 -19 -71 -29 -5 -9 -19 -56 -32 -106 -20 -77 -23 -114 -23 -260 0 -164 4 -195 40 -327 5 -16 22 -18 179 -18 208 0 264 -13 373 -90 67 -47 202 -191 202 -216 0 -7 11 -32 25 -55 49 -85 65 -160 65 -299 0 -143 -16 -235 -57 -338 -34 -86 -98 -193 -139 -233 -30 -29 -33 -30 -60 -16 -97 51 -155 199 -110 285 13 25 23 32 47 32 35 0 89 -52 89 -85 0 -12 6 -29 13 -39 12 -16 16 -13 46 34 49 76 72 159 78 280 9 183 -40 324 -147 423 -67 63 -133 97 -243 127 -123 32 -270 22 -332 -24 -18 -13 -18 -16 -5 -29 8 -7 40 -21 71 -30 75 -23 163 -81 227 -151 55 -61 75 -93 86 -138 8 -34 7 -34 -52 -4 -54 27 -146 50 -182 45 -24 -4 -25 -6 -25 -84 0 -66 8 -104 44 -220 58 -186 105 -291 190 -429 83 -133 144 -217 196 -266 l36 -35 32 39 c179 218 291 448 329 676 18 105 17 600 0 700 -45 251 -110 399 -225 512 -37 38 -73 68 -80 68 -9 0 -11 -19 -9 -66 5 -80 -16 -142 -59 -178 -63 -53 -225 -73 -304 -37 -52 24 -117 95 -140 154 -22 59 -16 157 13 196 59 80 220 147 351 144 142 -2 302 -80 407 -196 72 -80 179 -326 215 -499 19 -88 22 -135 23 -328 0 -163 -5 -256 -17 -339 -10 -62 -20 -117 -23 -122 -3 -5 -9 -33 -14 -63 -17 -107 -169 -411 -317 -635 -60 -91 -80 -128 -74 -140 15 -27 310 -312 406 -391 123 -103 243 -188 350 -249 90 -51 129 -62 138 -38 3 7 2 233 -2 502 -4 270 -4 506 1 525 4 19 8 82 8 139 0 90 -2 102 -16 97 -9 -3 -24 -6 -34 -6 -20 0 -154 -94 -213 -149 -65 -60 -167 -224 -167 -268 0 -9 -7 -36 -16 -60 -10 -25 -13 -49 -8 -60 4 -10 9 -38 10 -61 4 -56 32 -152 44 -152 5 0 16 13 24 29 26 49 138 87 184 62 44 -23 48 -125 8 -186 -60 -92 -149 -63 -294 96 -38 42 -79 97 -92 124 -21 44 -23 55 -17 169 4 78 14 145 26 186 57 184 231 366 451 472 58 27 116 55 130 62 25 12 25 13 22 122 -17 600 -20 671 -32 697 -29 61 -105 41 -167 -45 -43 -59 -63 -127 -63 -218 0 -66 10 -82 65 -100 29 -9 35 -17 35 -39 0 -62 -59 -84 -106 -40 -41 38 -82 137 -92 219 -18 153 8 270 75 331 49 46 176 132 213 145 35 12 52 46 33 65 -8 8 -2 270 17 749 5 146 10 369 10 496 0 194 -3 236 -17 264 -15 31 -17 32 -30 15 -7 -11 -13 -33 -13 -50 0 -44 -73 -189 -183 -362 -199 -314 -255 -456 -245 -622 5 -79 25 -132 75 -199 28 -37 99 -86 113 -77 5 3 6 30 3 60 -11 102 51 200 121 193 41 -4 57 -38 58 -127 1 -56 -3 -79 -25 -123 -44 -90 -64 -103 -160 -103 -70 0 -91 4 -141 29 -107 52 -174 134 -191 232 -4 21 -14 64 -22 94 -11 39 -14 81 -10 150 6 113 40 225 120 394 57 118 211 394 258 461 16 22 36 65 45 95 9 30 25 73 36 95 36 70 208 589 199 598 -10 10 -146 17 -206 11z"/> <path d="M3112 5133 c-13 -3 -25 -10 -28 -17 -3 -7 12 -57 32 -112 50 -138 144 -414 144 -426 0 -6 11 -32 25 -60 14 -27 25 -55 25 -61 1 -19 58 -126 161 -300 53 -89 117 -202 142 -252 107 -215 158 -437 127 -555 -5 -19 -17 -67 -27 -105 -25 -94 -63 -157 -120 -196 -73 -50 -133 -69 -222 -69 l-79 0 -35 40 c-49 53 -68 124 -58 212 7 69 29 108 60 108 21 0 87 -64 108 -104 12 -22 14 -46 10 -94 l-6 -64 26 7 c96 24 173 152 173 287 0 75 -26 200 -51 247 -10 19 -19 41 -19 49 0 18 -52 109 -160 277 -119 184 -200 336 -200 375 0 36 -16 80 -30 80 -5 0 -10 -8 -10 -18 0 -10 -4 -22 -9 -28 -14 -15 -19 -271 -10 -494 15 -376 21 -543 24 -793 4 -246 8 -277 39 -277 18 0 158 -97 203 -141 70 -69 78 -94 78 -254 0 -130 -2 -144 -26 -195 -42 -87 -102 -140 -137 -121 -22 12 -42 58 -34 79 2 8 23 22 47 32 39 17 42 21 49 65 3 26 6 65 6 86 0 74 -72 194 -137 227 -36 19 -37 19 -68 1 l-32 -19 -6 -138 c-3 -75 -11 -255 -18 -400 -11 -248 -11 -263 6 -282 10 -11 23 -20 29 -20 26 0 216 -101 273 -144 80 -61 199 -189 242 -260 64 -108 103 -375 66 -463 -22 -52 -146 -195 -201 -232 -67 -44 -119 -57 -150 -36 -70 46 -93 193 -34 225 47 25 141 -6 179 -59 12 -17 26 -31 30 -31 13 0 43 110 48 180 4 54 0 83 -17 137 -44 133 -80 194 -160 273 -92 91 -144 128 -213 151 -44 15 -53 15 -60 4 -4 -8 -3 -67 3 -132 12 -129 13 -506 4 -758 -4 -89 -3 -209 1 -268 6 -97 9 -107 26 -107 47 0 252 130 429 273 168 135 440 410 440 444 0 7 -33 61 -73 120 -99 146 -155 244 -227 398 -120 252 -144 368 -145 690 0 294 13 392 77 565 70 190 130 301 203 374 163 165 429 193 641 68 60 -35 90 -77 99 -141 8 -60 -5 -110 -47 -181 -26 -43 -44 -60 -88 -82 -105 -53 -268 -32 -337 44 -25 26 -43 103 -43 179 0 29 -4 49 -11 49 -6 0 -31 -20 -55 -44 -24 -25 -50 -49 -58 -53 -18 -11 -121 -206 -145 -276 -76 -219 -87 -714 -24 -1002 38 -173 201 -472 317 -584 35 -34 36 -35 54 -15 134 147 273 383 360 614 59 154 72 205 79 300 7 112 1 119 -94 95 -37 -9 -72 -20 -78 -24 -5 -4 -29 -15 -52 -24 -50 -20 -52 -14 -23 51 24 53 107 141 171 183 27 17 84 46 126 65 43 18 78 39 78 46 0 18 -86 47 -163 54 -160 15 -300 -33 -423 -144 -104 -94 -156 -248 -147 -436 6 -113 27 -186 79 -266 32 -50 49 -56 49 -18 0 26 36 85 60 98 73 39 121 -48 90 -162 -13 -46 -64 -113 -107 -140 l-32 -19 -40 38 c-22 21 -63 79 -92 128 -43 76 -55 108 -75 207 -47 233 -41 381 23 498 15 29 38 72 50 96 32 61 162 195 222 227 92 51 134 59 336 66 l190 6 12 50 c47 190 43 428 -10 598 l-22 70 -110 27 c-179 45 -333 117 -529 247 -132 88 -148 103 -235 213 -228 285 -353 549 -396 829 -13 83 -13 98 0 124 8 17 15 35 15 42 0 30 87 85 135 85 15 0 44 -52 62 -112 42 -142 182 -409 263 -501 46 -53 60 -38 60 67 0 44 7 106 15 136 17 64 55 150 66 150 10 0 79 -60 79 -69 0 -3 -18 -14 -40 -23 -46 -19 -67 -58 -77 -137 -12 -105 60 -276 149 -352 98 -84 132 -91 141 -29 6 44 24 73 38 64 20 -12 69 -111 69 -138 l0 -29 -67 6 c-146 14 -288 115 -431 309 -145 196 -223 330 -292 501 -19 47 -28 57 -47 57 -33 0 -37 -17 -23 -117 19 -146 38 -201 118 -347 84 -152 165 -252 332 -409 142 -134 262 -207 395 -242 61 -15 187 -20 245 -9 l32 7 -6 56 c-4 31 -13 79 -21 106 -8 28 -26 93 -40 145 -53 194 -140 353 -332 612 -131 176 -294 343 -400 412 -123 79 -330 156 -425 156 -18 0 -69 7 -113 15 -76 14 -184 17 -233 8z"/> <path d="M86 4458 c-69 -195 -77 -687 -15 -922 10 -37 12 -38 45 -33 19 3 52 20 72 38 68 58 274 263 323 322 44 52 69 101 57 112 -2 3 -30 -4 -61 -15 -31 -11 -65 -20 -76 -20 -31 0 -54 54 -49 110 6 59 56 168 93 202 25 24 27 29 17 58 -20 57 -71 109 -141 144 -70 35 -143 60 -202 70 l-37 6 -26 -72z"/> <path d="M5858 4505 c-3 -3 -25 -8 -48 -11 -116 -14 -255 -106 -305 -203 -14 -28 -14 -31 10 -49 13 -11 41 -51 60 -90 58 -113 56 -222 -3 -230 -20 -3 -66 9 -124 33 -37 15 -18 -38 39 -109 84 -105 301 -313 355 -341 75 -39 84 -36 97 38 54 321 42 643 -35 915 -14 46 -30 63 -46 47z"/> <path d="M304 2042 c-73 -26 -99 -45 -131 -99 -25 -43 -28 -57 -27 -138 1 -147 57 -310 185 -545 46 -85 78 -123 86 -102 11 30 66 82 107 101 53 26 96 26 179 1 53 -17 73 -29 106 -66 81 -93 102 -199 95 -490 l-5 -190 29 -40 c175 -240 483 -425 750 -451 55 -5 62 -4 56 11 -3 9 -37 32 -76 53 -104 54 -208 150 -363 337 -125 150 -145 178 -184 269 -52 120 -65 212 -37 265 9 18 18 32 20 32 2 0 17 -5 35 -11 44 -15 61 -54 72 -167 6 -53 16 -106 22 -118 7 -12 23 -41 36 -65 27 -50 157 -200 209 -241 54 -43 87 -31 43 16 -42 45 -132 293 -146 401 -4 28 -13 84 -21 125 -9 41 -14 109 -13 150 l2 75 -44 -2 c-24 -1 -71 -3 -104 -5 -72 -4 -114 12 -146 55 -20 27 -24 43 -24 109 0 90 19 125 80 146 45 15 72 9 80 -19 22 -67 327 -419 418 -481 67 -46 195 -118 208 -118 17 0 -6 36 -68 113 -73 89 -194 287 -260 427 -46 98 -96 232 -140 380 -14 47 -28 88 -32 93 -4 4 -30 -5 -57 -19 -208 -111 -309 -112 -526 -3 -64 32 -130 76 -191 127 -133 113 -135 114 -223 84z"/> <path d="M5560 2043 c-14 -9 -41 -31 -60 -49 -57 -53 -256 -181 -317 -204 -151 -56 -236 -53 -385 14 -57 26 -107 48 -113 49 -5 1 -21 -43 -36 -98 -14 -55 -35 -118 -46 -140 -11 -22 -30 -71 -42 -109 -35 -109 -224 -447 -308 -550 -26 -32 -57 -69 -67 -82 -11 -13 -17 -26 -13 -30 11 -11 167 80 250 147 119 96 281 285 363 425 23 40 30 44 64 44 45 0 91 -33 110 -80 19 -45 8 -132 -21 -174 -40 -58 -77 -66 -264 -53 -29 2 -29 2 -26 -47 5 -83 -20 -255 -55 -391 -32 -120 -109 -305 -134 -320 -15 -9 -12 -35 4 -35 21 0 129 103 193 183 74 93 110 164 118 234 15 144 17 154 42 183 33 40 68 40 88 0 8 -16 15 -43 15 -60 0 -58 -40 -188 -80 -263 -99 -184 -453 -548 -560 -577 -44 -12 -56 -40 -17 -40 85 0 311 69 412 125 33 19 96 63 140 98 71 57 107 93 229 225 l31 33 0 262 c1 291 3 304 70 403 41 59 87 88 171 105 89 18 143 1 211 -67 62 -62 56 -66 138 86 65 119 83 162 131 310 75 228 51 358 -77 423 -70 36 -125 43 -159 20z"/> <path d="M599 1192 c-43 -22 -129 -102 -129 -120 0 -7 5 -18 10 -25 6 -7 31 -43 57 -82 25 -38 92 -126 149 -195 57 -69 112 -136 123 -150 l19 -25 7 49 c4 26 5 121 3 209 -4 151 -6 166 -31 214 -38 74 -82 121 -125 133 -47 13 -42 13 -83 -8z"/> <path d="M5285 1193 c-49 -25 -92 -72 -117 -127 -20 -46 -23 -69 -26 -250 -2 -109 0 -202 5 -207 12 -12 363 435 363 464 0 15 -105 109 -137 123 -40 17 -51 17 -88 -3z"/> </g> </svg>
